<svg xmlns="http://www.w3.org/2000/svg" viewBox="0 0 512 512" width="512" height="512">
  <defs>
    <linearGradient id="bgGrad" x1="0%" y1="0%" x2="100%" y2="100%">
      <stop offset="0%" stop-color="#0284c7" />
      <stop offset="50%" stop-color="#0369a1" />
      <stop offset="100%" stop-color="#0f172a" />
    </linearGradient>
    <linearGradient id="accentGrad" x1="0%" y1="0%" x2="100%" y2="100%">
      <stop offset="0%" stop-color="#38bdf8" />
      <stop offset="100%" stop-color="#0284c7" />
    </linearGradient>
    <filter id="glow" x="-20%" y="-20%" width="140%" height="140%">
      <feDropShadow dx="0" dy="8" stdDeviation="16" flood-color="#0284c7" flood-opacity="0.4" />
    </filter>
  </defs>

  <!-- Background with smooth squircle -->
  <rect width="512" height="512" rx="128" fill="url(#bgGrad)" />

  <!-- Inner glowing frame -->
  <rect x="36" y="36" width="440" height="440" rx="100" fill="none" stroke="rgba(255,255,255,0.12)" stroke-width="4" />

  <!-- Digital Card & QR Motif -->
  <g filter="url(#glow)">
    <!-- ID Card Graphic -->
    <rect x="96" y="110" width="320" height="200" rx="24" fill="rgba(15, 23, 42, 0.75)" stroke="url(#accentGrad)" stroke-width="6" />
    
    <!-- Card Header Stripe -->
    <path d="M 96 142 L 416 142" stroke="#38bdf8" stroke-width="6" stroke-linecap="round" />

    <!-- Avatar Circle -->
    <circle cx="160" cy="225" r="38" fill="#38bdf8" />
    <path d="M 136 250 A 24 24 0 0 1 184 250" stroke="#0f172a" stroke-width="6" fill="none" stroke-linecap="round" />
    <circle cx="160" cy="215" r="14" fill="#0f172a" />

    <!-- Card Lines -->
    <rect x="220" y="195" width="160" height="12" rx="6" fill="#ffffff" />
    <rect x="220" y="222" width="110" height="10" rx="5" fill="#94a3b8" />
    <rect x="220" y="246" width="80" height="10" rx="5" fill="#38bdf8" />

    <!-- Small QR Code Badge on card -->
    <rect x="345" y="220" width="45" height="45" rx="8" fill="#ffffff" />
    <rect x="352" y="227" width="12" height="12" fill="#0f172a" />
    <rect x="371" y="227" width="12" height="12" fill="#0f172a" />
    <rect x="352" y="246" width="12" height="12" fill="#0f172a" />
    <rect x="371" y="246" width="12" height="12" fill="#0284c7" />
  </g>

  <!-- Typography Brand "DM DIGITALMEERA" -->
  <text x="256" y="380" font-family="system-ui, -apple-system, BlinkMacSystemFont, 'Segoe UI', Roboto, sans-serif" font-size="44" font-weight="900" fill="#ffffff" text-anchor="middle" letter-spacing="4">
    DIGITALMEERA
  </text>
  <text x="256" y="420" font-family="system-ui, -apple-system, BlinkMacSystemFont, 'Segoe UI', Roboto, sans-serif" font-size="19" font-weight="700" fill="#38bdf8" text-anchor="middle" letter-spacing="3">
    KURSUS &amp; ABSENSI
  </text>
</svg>
